<?xml version="1.0" standalone="no"?>
<!DOCTYPE svg PUBLIC "-//W3C//DTD SVG 20010904//EN"
 "http://www.w3.org/TR/2001/REC-SVG-20010904/DTD/svg10.dtd">
<svg version="1.0" xmlns="http://www.w3.org/2000/svg"
 width="233.000000pt" height="233.000000pt" viewBox="0 0 233.000000 233.000000"
 preserveAspectRatio="xMidYMid meet">
<metadata>
Created by potrace 1.14, written by Peter Selinger 2001-2017
</metadata>
<g transform="translate(0.000000,233.000000) scale(0.100000,-0.100000)"
fill="#000000" stroke="none">
<path d="M1103 2318 c-121 -18 -218 -79 -260 -164 -47 -93 -47 -81 -48 -1147
l-2 -1008 201 1 c264 1 349 21 439 100 38 33 82 123 93 190 14 86 11 670 -3
734 -18 78 -58 150 -108 194 l-41 35 49 49 c58 58 93 131 104 218 5 36 8 232
8 435 l0 370 -190 0 c-105 0 -213 -3 -242 -7z m305 -423 c3 -356 -5 -420 -58
-494 -50 -68 -95 -82 -275 -84 l-156 -2 3 355 c3 336 5 357 25 401 28 62 82
104 157 123 73 19 94 21 211 21 l90 0 3 -320z m-143 -710 c62 -23 109 -81 129
-158 13 -52 15 -116 13 -387 -3 -346 -5 -362 -55 -428 -53 -72 -116 -93 -299
-98 l-133 -4 0 543 c0 299 2 546 4 548 2 2 70 3 151 3 111 -1 156 -6 190 -19z"/>
</g>
</svg>
